<?xml version="1.0" encoding="UTF-8"?>
<svg id="Layer_1" xmlns="http://www.w3.org/2000/svg" version="1.1" viewBox="740 370 1380 410">
  <!-- Generator: Adobe Illustrator 30.6.0, SVG Export Plug-In . SVG Version: 2.1.4 Build 109)  -->
  <defs>
    <style>
      .st0 {
        stroke: #5b2c75;
        stroke-miterlimit: 10;
        stroke-width: 10px;
      }

      .st0, .st1 {
        fill: #30b566;
      }

      .st2 {
        fill: #5b2c75;
      }
    </style>
  </defs>
  <g>
    <path class="st0" d="M791.1,681.4c10.8-17.3,19.9-35.6,28.7-54,27.7-59.3,53.2-119.5,77.5-180.3,6.4-16.5,12.5-33,17.1-50.1,16.4.7,32.8.9,49.3,1h69.8c22.3,0,51.4,3.3,65.1,23.7,13.6,20.2,5.4,48.7-3.5,69-24.8,56.4-78.8,101.5-142.9,100.8-13.9,0-27.9,0-41.8,0-5.2,11.6-10.4,23.2-15.7,34.8-8.2,18.2-16.4,36.6-23.5,55.3-26.7,0-53.4,0-80,0ZM977.1,522.9c18.9,0,34-13.9,41.2-30.2,6.3-14.1,2-30.7-16.3-29-12.4,0-24.7,0-37.1,0-8.2,19.8-16.4,39.5-24.7,59.2,12.3,0,24.6,0,36.9,0Z"/>
    <path class="st0" d="M1226.3,611.8c17.1.1,34.3-.4,51.3-2.2-11.2,24.9-22.6,49.6-34.4,74.2-16.3-2.1-32.7-2.2-49-2.4-35.5,0-71,0-106.6,0-16.7,0-33.4,0-50.1,1,9.5-16.8,17.5-34.4,25.1-52.2,26.4-60.9,52.7-121.7,79.1-182.6,7.1-16.6,14.2-33.3,19.5-50.6,16.3,1.1,32.6,1,48.9,1,34.2,0,68.5,0,102.7,0,17,0,34.1-.6,51-2.2-9.9,24-19.8,48-29.8,72-16.5-2-33.1-2.3-49.7-2.5-25.1,0-50.1-.2-75.2-.2-5.3,12.3-10.7,24.6-16,37l61.6.2c17.5,0,35-.5,52.5-2.1-10.2,24.1-20.4,48.1-30.8,72.1-16.8-2.1-33.7-2.4-50.6-2.6-20.7,0-41.4-.2-62.1-.3-6.1,14-12.1,28-18.2,42,26.9,0,53.7.2,80.6.3Z"/>
    <path class="st0" d="M1531.7,398.3c20.3,1.1,43.4,4.4,54.4,23.9,9.7,17.3,3.3,39.6-3,56.3-8.3,22-23.4,43.1-43.5,56.7-10,6.9-21.3,11.4-32.8,15,12.7,4.5,18.4,14.8,17.6,28.1.6,16.5-2.1,33.4-3.6,49.8-1.7,17.7-3.3,35.4-4.6,53.2-28.8,0-57.6,0-86.3.1,5.8-16.6,8.8-34,11.3-51.2,1.6-11.4,8.5-34-1.4-44.2-3.6-3.7-9-5.3-17.5-5.4h-22.8c-6.9,15.5-14,30.9-21.2,46.3-8.5,18-17,36-24.4,54.5-26.7,0-53.4,0-80.1,0,10.7-17.5,19.6-35.8,28.3-54.4,26.9-58.9,51.9-118.6,76.4-178.5,6.8-16.9,13.5-33.9,18.4-51.4,16.7.8,33.3.9,50,1,28.3,0,56.6,0,84.9.1ZM1468.3,512c15.3-.2,27.3-11.4,33.2-24.3,5.6-12-.5-23.5-14-23.5-13.2-.2-26.3-.2-39.5-.3-6.4,16-12.8,31.9-19.3,47.8,13.2,0,26.4,0,39.6.2Z"/>
    <path class="st0" d="M1743.1,398.9c-8.6,17.9-15.8,36.4-23,54.9-23.3,58.8-49.4,116.3-76.5,173.5-8.3,17.7-16.7,35.5-23.3,53.9-27.1,0-54.2,0-81.4.1,10.7-17.2,19.8-35.4,28.5-53.7,27.2-57.5,52.8-115.7,76.2-174.9,6.9-17.7,13.8-35.5,18-54.1,27.1,0,54.3.2,81.4.2Z"/>
    <path class="st0" d="M1856.7,683.6c-16.2-2.2-32.6-2.3-48.9-2.5-34.2,0-68.3,0-102.5,0-16.7,0-33.5.2-50.2,1.1,10.3-16.8,18.8-34.7,27.3-52.5,27-57,53.4-114.2,76.8-172.7,7.3-19,14.3-38.2,19.2-58,26.9,0,53.7,0,80.6-.2-8.7,18.3-16.1,37.2-23.6,56.1-21,52.2-44.4,103.4-68.2,154.4l74-.5c17,0,34-.7,51-2.7-11.9,25.8-23.7,51.6-35.5,77.4Z"/>
    <path class="st0" d="M1934.9,585.8c3.8-7,4.8-9,9-18.4,1.4-3,1.9-4.1,9.4-24.2,12.2-32.7,24-65.6,35-98.8,5-15.3,9.3-30.7,13.5-46.3,28.8-.1,57.7-.2,86.5-.3-7.5,14.9-14.8,29.9-22,45-16.3,33.3-33.1,66.3-50.2,99.2-4.8,9.2-9.5,18.4-13.8,27.9-2.1,4.7-4.3,9.4-6.6,15.2-20.3.2-40.5.4-60.8.6ZM1885.2,681.2c11.4-25.2,22.9-50.4,34.5-75.5,24.4-.2,48.7-.3,73.1-.5-11.5,25.3-23,50.7-34.3,76-24.4,0-48.9,0-73.3,0Z"/>
  </g>
  <g>
    <path class="st1" d="M1946.3,726.5c-392.6-.4-785.1-.7-1177.7-1.1,3.7-8.9,7.8-17.7,12.3-26.2,392.1,0,784.2,0,1176.2,0-3.5,9.1-7.1,18.3-10.8,27.3Z"/>
    <path class="st2" d="M1935.6,753.9c-393,0-786.1,0-1179.1,0,4.1-9.5,8-19,12-28.5,392.6.4,785.1.7,1177.7,1.1-3.7,9.1-7.2,18.2-10.6,27.4Z"/>
  </g>
</svg>
